<?xml version="1.0" standalone="no"?>
<!DOCTYPE svg PUBLIC "-//W3C//DTD SVG 1.1//EN" "http://www.w3.org/Graphics/SVG/1.1/DTD/svg11.dtd" >
<!--
2013-9-30: Created.
-->
<svg>
<metadata>
Created by iconfont
</metadata>
<defs>

<font id="iconfont" horiz-adv-x="1024" >
  <font-face
    font-family="iconfont"
    font-weight="500"
    font-stretch="normal"
    units-per-em="1024"
    ascent="896"
    descent="-128"
  />
    <missing-glyph />
    
    <glyph glyph-name="x" unicode="x" horiz-adv-x="1001"
d="M281 543q-27 -1 -53 -1h-83q-18 0 -36.5 -6t-32.5 -18.5t-23 -32t-9 -45.5v-76h912v41q0 16 -0.5 30t-0.5 18q0 13 -5 29t-17 29.5t-31.5 22.5t-49.5 9h-133v-97h-438v97zM955 310v-52q0 -23 0.5 -52t0.5 -58t-10.5 -47.5t-26 -30t-33 -16t-31.5 -4.5q-14 -1 -29.5 -0.5
t-29.5 0.5h-32l-45 128h-439l-44 -128h-29h-34q-20 0 -45 1q-25 0 -41 9.5t-25.5 23t-13.5 29.5t-4 30v167h911zM163 247q-12 0 -21 -8.5t-9 -21.5t9 -21.5t21 -8.5q13 0 22 8.5t9 21.5t-9 21.5t-22 8.5zM316 123q-8 -26 -14 -48q-5 -19 -10.5 -37t-7.5 -25t-3 -15t1 -14.5
t9.5 -10.5t21.5 -4h37h67h81h80h64h36q23 0 34 12t2 38q-5 13 -9.5 30.5t-9.5 34.5q-5 19 -11 39h-368zM336 498v228q0 11 2.5 23t10 21.5t20.5 15.5t34 6h188q31 0 51.5 -14.5t20.5 -52.5v-227h-327z" />
    

    
    <glyph glyph-name="gouwuchekong" unicode="&#58880;" d="M332.8 105.472q19.456 0 36.864-7.168t30.208-19.968 20.48-30.208 7.68-36.864-7.68-36.864-20.48-30.208-30.208-20.48-36.864-7.68q-20.48 0-37.888 7.68t-30.208 20.48-20.48 30.208-7.68 36.864 7.68 36.864 20.48 30.208 30.208 19.968 37.888 7.168zM758.784 103.424q19.456 0 37.376-7.168t30.72-19.968 20.48-30.208 7.68-36.864-7.68-36.864-20.48-30.208-30.72-20.48-37.376-7.68-36.864 7.68-30.208 20.48-20.48 30.208-7.68 36.864 7.68 36.864 20.48 30.208 30.208 19.968 36.864 7.168zM930.816 685.056q28.672 0 44.544-7.68t22.528-18.944 6.144-24.064-3.584-22.016-13.312-37.888-22.016-62.976-23.552-68.096-18.944-53.248q-13.312-40.96-33.28-56.832t-49.664-15.872l-35.84 0-65.536 0-86.016 0-96.256 0-253.952 0 14.336-92.16 517.12 0q49.152 0 49.152-41.984 0-20.48-9.728-35.84t-38.4-14.336l-49.152 0-94.208 0-118.784 0-119.808 0-99.328 0-55.296 0q-20.48 0-34.304 9.216t-23.04 24.064-14.848 32.256-8.704 32.768q-1.024 6.144-5.632 29.696t-11.264 58.88-14.848 78.848-16.384 87.552q-19.456 103.424-44.032 230.4l-76.8 0q-15.36 0-25.6 7.68t-16.896 18.432-9.216 23.04-2.56 22.528q0 20.48 13.824 33.792t37.376 12.288l103.424 0q20.48 0 32.768-6.144t19.456-15.36 10.24-18.944 5.12-16.896q2.048-8.192 4.096-23.04t4.096-30.208q3.072-18.432 6.144-38.912l700.416 0zM892.928 593.92l-641.024 2.048 35.84-185.344 535.552-1.024z"  horiz-adv-x="1028" />

    
    <glyph glyph-name="yiyaoxiang" unicode="&#58889;" d="M800.0932 536.6382H632.5288959999999v41.728c0 38.0815-30.8787 68.9725-68.9992 68.9725H397.08569600000004c-38.1071 0-68.9859-30.891-68.9859-68.9725v-41.728h-167.74144c-52.6479 0-95.3364-42.6762-95.3364-95.3242v-418.192384c0-52.65 42.6885-95.3508 95.3364-95.3508h639.5740159999999c52.6459 0 95.3498 42.7008 95.3498 95.3508V419.113728c0.1034-1.8166 0.1608-3.6465 0.1608-5.4886v27.688959999999998C895.444 493.962 852.7411 536.6382 800.0932 536.6382zM369.6128 578.3672c0 15.1357 12.3249 27.4596 27.4729 27.4596h166.44403200000002c15.1491 0 27.4862-12.3238 27.4862-27.4596v-41.728H369.61280000000005V578.367232zM659.1703 218.2664c-0.0031 0.0348-0.0051 0.0686-0.0082 0.1034-0.9953-13.058-3.3823-25.726-7.0113-37.8573-0.001-0.0041-0.002-0.0072-0.0031-0.0113-0.3881-1.2964-0.7905-2.5836-1.2073-3.8666-0.0317-0.0983-0.0635-0.1966-0.0963-0.2949-0.3912-1.1991-0.7946-2.3921-1.2114-3.5799-0.0645-0.1864-0.13-0.3717-0.1956-0.5581-0.3901-1.1049-0.7916-2.2047-1.2032-3.2993-0.1044-0.2775-0.2089-0.553-0.3154-0.8294-0.383-1.0056-0.7752-2.0081-1.1756-3.0054-0.1495-0.3738-0.3041-0.7465-0.4567-1.1192-0.3676-0.897-0.7414-1.792-1.1233-2.6829-0.2099-0.4905-0.426-0.9779-0.641-1.4664-0.3389-0.769-0.6779-1.537-1.0271-2.3009-0.2898-0.6339-0.5878-1.2646-0.8847-1.8964-0.2888-0.6144-0.5765-1.2278-0.8724-1.8381-0.4035-0.8315-0.8172-1.6558-1.2329-2.4801-0.2028-0.4045-0.4035-0.81-0.6103-1.2124-0.5796-1.1305-1.1735-2.2528-1.7766-3.369-0.0512-0.0952-0.1014-0.1915-0.1516-0.2847-30.4701-56.0466-89.8693-94.0831-158.1527-94.0831-6.187 0-12.3013 0.3133-18.3286 0.9226-0.0963 0.0102-0.1925 0.0215-0.2898 0.0317-1.3066 0.1341-2.6081 0.2836-3.9066 0.4465-0.5048 0.0635-1.0066 0.1341-1.5104 0.2017-0.8735 0.1157-1.7469 0.2365-2.6163 0.3656-0.8264 0.1229-1.6497 0.255-2.473 0.3901-0.5253 0.086-1.0516 0.171-1.5759 0.2611-1.1039 0.1925-2.2047 0.3922-3.3014 0.6031-0.2191 0.042-0.4383 0.084-0.6564 0.126-78.2131 15.3661-138.1786 81.5043-144.3676 162.6839-0.0532-0.6922-0.1044-1.3865-0.1567-2.0808-0.4598 5.246-0.7086 10.5533-0.7086 15.9181 0 99.3516 80.5663 179.8912 179.8902 179.8912 99.3485 0 179.8892-80.5396 179.8892-179.8912C659.7038 227.5162 659.5226 222.8682 659.1703 218.2664zM593.0824 273.7334h-71.25504v71.702528c0 6.5004-5.2982 11.7555-11.8241 11.7555h-59.364352c-6.527 0-11.8385-5.2562-11.8385-11.7555v-71.702528h-71.256064c-6.4993 0-11.7699-5.2972-11.7699-11.8364v-59.343872000000005c0-6.5423 5.2695-11.8395 11.7699-11.8395h71.256064v-70.8096c0-6.5147 5.3115-11.7842 11.8385-11.7842h59.364352c6.526 0 11.8241 5.2695 11.8241 11.7842v70.8096h71.25504c6.5126 0 11.7709 5.2972 11.7709 11.8395v59.343872000000005C604.8532 268.4372 599.595 273.7334 593.0824 273.7334z"  horiz-adv-x="1024" />

    
    <glyph glyph-name="shouji" unicode="&#58940;" d="M288.940817-212.000015c-71.468989 0-129.613276 58.141266-129.613276 129.607233l0 764.784054c0 71.465967 58.144288 129.608743 129.613276 129.608743l446.119877 0c71.468989 0 129.611765-58.141266 129.611765-129.608743l0-764.784054c0-71.465967-58.142777-129.607233-129.611765-129.607233L288.940817-212.000015zM288.939306 743.984963c-33.96371 0-61.593691-27.631493-61.593691-61.593691l0-764.784054c0-33.96371 27.631493-61.595202 61.593691-61.595202l446.119877 0c33.965221 0 61.601246 27.631493 61.601246 61.595202l0 764.784054c0 33.96371-27.634514 61.593691-61.601246 61.593691L288.939306 743.984963zM512.000755-84.535251c-18.751884 0-34.006015 15.257153-34.006015 34.010548 0 18.750373 15.255642 34.006015 34.006015 34.006015 18.750373 0 34.006015-15.255642 34.006015-34.006015C546.006771-69.278098 530.751129-84.535251 512.000755-84.535251zM352.676977 42.931025c-36.32526 0-65.877117 29.550346-65.877117 65.871073l0 509.860569c0 36.320727 29.553368 65.869562 65.877117 65.869562l318.659645 0c36.317705 0 65.865029-29.548835 65.865029-65.869562l0-509.860569c0-36.320727-29.547324-65.871073-65.865029-65.871073L352.676977 42.931025zM669.189621 110.947588 669.189621 616.521709 354.813401 616.521709l0-505.574122L669.189621 110.947588zM735.060694-209.859058l-446.119877 0c-70.405309 0-127.470808 57.073054-127.470808 127.466275l0 764.784054c0 70.399266 57.06701 127.466275 127.470808 127.466275l446.119877 0c70.399266 0 127.470808-57.068521 127.470808-127.466275l0-764.784054C862.531502-152.786004 805.459959-209.859058 735.060694-209.859058L735.060694-209.859058zM798.801386 682.391272c0 35.199633-28.536527 63.73616-63.742203 63.73616l-446.119877 0c-35.201144 0-63.73616-28.530483-63.73616-63.73616l0-764.784054c0-35.199633 28.535016-63.73616 63.73616-63.73616l446.119877 0c35.205676 0 63.742203 28.536527 63.742203 63.73616L798.801386 682.391272 798.801386 682.391272zM671.336622 45.071982 352.676977 45.071982c-35.199633 0-63.73616 28.530483-63.73616 63.730116l0 509.860569c0 35.199633 28.536527 63.728605 63.73616 63.728605l318.659645 0c35.193589 0 63.724072-28.528972 63.724072-63.728605l0-509.860569C735.060694 73.602465 706.530211 45.071982 671.336622 45.071982L671.336622 45.071982zM671.336622 618.662667 607.600462 618.662667 607.595929 618.662667 352.670933 618.662667l0-63.724072 0-0.013598 0-382.389761 0-0.012087 0-63.718029 318.659645 0 0 509.856036L671.336622 618.661156zM512.000755-18.659645c17.59755 0 31.865058-14.261464 31.865058-31.865058 0-17.596039-14.264486-31.869591-31.865058-31.869591s-31.865058 14.27053-31.865058 31.869591C480.135698-32.92262 494.401695-18.659645 512.000755-18.659645L512.000755-18.659645z"  horiz-adv-x="1024" />

    
    <glyph glyph-name="you" unicode="&#58935;" d="M358.098131 126.195263 421.746378 62.547017 676.544019 317.24233 421.746378 572.039972 358.098131 508.289397 549.145198 317.24233Z"  horiz-adv-x="1024" />

    
    <glyph glyph-name="icon-arrow-left2-copy" unicode="&#58881;" d="M682.363 696.082c-20.637 21.23-54.126 21.23-74.814 0l-265.951-273.754c-20.627-21.268-20.627-55.75 0-76.975l265.951-273.744c20.684-21.268 54.175-21.268 74.814 0 20.673 21.237 20.673 55.711 0 76.986l-228.557 235.248 228.556 235.222c20.672 21.268 20.672 55.744 0 77.023v0z"  horiz-adv-x="1024" />

    
    <glyph glyph-name="you1" unicode="&#58918;" d="M395.050741 133.575386C382.812194 121.336838 382.873859 101.137222 395.370636 88.640448 407.501937 76.509146 427.985471 76.000448 440.305575 88.32055L720.238874 368.253848C732.477421 380.492396 732.415757 400.69201 719.918976 413.188787 719.47177 413.635996 719.01321 414.06741 718.544128 414.482969 718.119277 414.961325 717.67776 415.430001 717.219546 415.888216L438.799416 694.308348C426.037701 707.070063 405.604672 707.241812 393.107895 694.745035 380.976594 682.613734 380.806629 661.791467 393.544582 649.053514L652.036723 390.56137 395.050741 133.575386Z"  horiz-adv-x="1024" />

    
    <glyph glyph-name="nvzhuang-copy" unicode="&#58892;" d="M899.517 62.167c-75.573 124.936-153.823 249.873-228.326 374.809 26.556 57.497 55.011 114.993 81.718 172.49 6.051 13.027 5.004 23.81-3.756 34.924-32.248 40.922-32.739 108.317-30.817 158.317 0.604 15.707-13.19 28.193-28.444 28.193-33.972 0-67.943 0-101.914 0-11.695 0-25.859-8.061-27.79-20.532-4.354-28.112-16.243-65.082-45.224-76.046-39.649-15-57.514 39.133-59.531 68.228-1.086 15.666-12.288 28.35-28.819 28.35-33.187 0-69.25 0-96.658 0-15.547 1.944-33.259-7.269-34.156-27.567-2.317-52.421-6.2-117.353-33.983-152.539-8.888-11.256-13.354-21.751-7.532-34.924 25.885-58.559 48.962-117.116 74.628-175.675-63.049-109.379-125.863-220.288-186.92-332.216-17.783-32.599-37.146-54.088-19.232-89.17 15.215-29.797 48.826-55.373 79.413-67.434 63.1-24.88 108.514-6.431 150.783 41.193 45.848 51.656 113.11-53.265 164.223-52.771 49.907 0.483 92.663 51.983 138.119 67.393 20.112 6.818 49.222-32.456 63.123-43.295 21.054-16.416 42.562-20.892 68.505-15.871 44.088 8.53 92.081 46.031 114.087 85.052 5.026 8.913 3.878 20.204-1.497 29.092zM492.915 675.736c61.485-4.366 102.744 43.228 118.166 97.858 16.527 0 33.055 0 49.582 0 0.597-52.515 9.015-107.747 36.053-152.21-23.974-51.602-47.948-103.172-71.923-154.782-80.132 0-156.451 0-237.97 0-8.494 23.355-23.414 48.105-28.95 60.628-14.71 33.278-28.961 66.556-43.529 99.834 28.194 44.622 34.598 94.456 37.572 146.529 15.737 0 32.95 0 50.156 0 10.489-47.026 39.025-94.177 90.843-97.857zM801.108 17.547c-46.792-29.224-56.495 4.589-91.398 29.021-58.601 41.021-110.364-2.441-162.416-32.869-9.2-5.377-26.287-19.244-37.226-14.362-16.654 7.432-30.84 21.736-45.201 32.782-28.090 21.605-62.605 36.947-98.697 29.702-31.442-6.312-52.28-23.759-72.392-47.393-35.157-41.316-95.135-6.157-121.917 30.425 70.674 123.029 137.38 244.616 208.972 364.444 42.781 0 161.99 0 241.241 0 5.845-14.045 15.717-27.869 25.953-44.791 63.838-105.537 125.495-211.047 188.858-316.58-9.51-12.198-22.318-21.971-35.779-30.379z"  horiz-adv-x="1024" />

    
    <glyph glyph-name="lanmankouhong" unicode="&#58893;" d="M651.622209 325.804118l-2.101333 0L649.520876 534.12089c0 22.313523-15.859143 40.928753-36.346809 44.113357 0.009316 0.444487 0.026616 0.883651 0.026616 1.328138L613.200683 817.469494c0 27.09908-19.208767 53.780288-35.802511 53.780288 0 0-22.789949 0-36.812589-3.55989-45.522674-10.683662-126.143867-78.314916-126.143867-143.158144l0-144.974686c0-0.389924 0.014639-0.78118 0.019962-1.172435-21.029301-2.665592-37.467342-21.541659-37.467342-44.262407l0-208.318103-7.910275-0.23289c-34.361255 0-62.478397-30.745472-62.478397-65.070795l0-301.342351c0-34.323993 28.117142-62.406533 62.478397-62.406533l285.83587 0.23289c34.361255 0 62.473073 28.083872 62.473073 62.406533L717.393004 260.733323c0.005323 34.325323-28.110488 65.070795-62.473073 65.070795L651.622209 325.804118zM446.865327 530.282863l132.785889 0 6.362555 0c11.085564 0 20.157627-9.500581 20.157627-21.114472l0-162.276417c0-11.619214-9.072063-21.119795-20.157627-21.119795l-143.127536 0c-11.090887 0-20.16295 9.500581-20.16295 21.119795L422.723285 509.16839c0 11.613891 9.072063 21.114472 20.16295 21.114472L446.865327 530.282863 446.865327 530.282863zM541.970946 812.101047c14.328723 2.814642 15.285568 1.128518 15.285568 1.128518 7.857043 0 9.243737-10.501342 9.243737-23.330254l0-179.823014c0-10.442787 2.949053-31.220567-10.506666-31.220567l-81.263969 0c-10.834042 1.103233-13.027201 14.628153-13.027201 31.220567 0 0-0.129088 92.338886-0.129088 116.092335C461.573328 749.916757 529.63443 809.681653 541.970946 812.101047L541.970946 812.101047zM665.451882-17.308052c0-18.514089-15.168458-33.665247-33.70384-33.665247L392.466217-50.973298c-18.536713 0-33.70384 15.151158-33.70384 33.665247l-0.23289 257.375382c0 18.519412 15.168458 33.671901 33.70384 33.671901l239.280495 0c18.535382 0 33.70384-15.151158 33.70384-33.671901L665.451882-17.308052 665.451882-17.308052zM665.451882-17.308052M395.932951 201.607211c0.123764-61.948738 0.239544-123.901469 0.357985-185.850207 0.070532-33.510874 52.035609-33.516197 51.971731 0-0.118441 61.948738-0.240875 123.901469-0.364639 185.850207C447.834149 235.118085 395.862418 235.123408 395.932951 201.607211L395.932951 201.607211zM395.932951 201.607211"  horiz-adv-x="1024" />

    
    <glyph glyph-name="yonghu" unicode="&#59102;" d="M641.777659 214.527446 383.588311 214.527446c-23.80486 0-47.09387-4.912669-68.61428-13.474864-67.189845-27.969037-111.31233-93.905132-111.31233-166.512704l0-28.656371 618.331171 0 0 28.656371c0 60.104049-30.370409 116.74065-80.431268 149.784046-9.304691 6.620511-20.095375 12.220714-30.937025 16.951507-11.01753 4.397019-22.096019 7.369004-33.625202 10.28003C665.582519 213.557104 653.827489 214.527446 641.777659 214.527446L641.777659 214.527446zM663.126184 282.969842 663.126184 282.969842c9.304691-0.747493 18.154691-2.233486 27.40342-3.942327 15.466514-3.193835 31.396713-7.873662 46.579219-14.212364 91.964448-38.016025 154.009182-130.213315 154.009182-230.214315l0-63.257911c0-19.114041-15.698357-34.589348-34.82339-34.589348l-0.454692 0L169.354761-63.246423c-19.124434 0-34.82279 15.475508-34.82279 34.589348l0 0.971341 0 62.28657c0 100.060959 61.311231 191.510556 153.958216 230.214315 23.28961 9.532537 48.519504 15.415548 74.033205 17.921849-89.730962 52.68408-146.13512 151.04779-146.13512 255.450604 0 163.543717 134.379091 296.663662 296.383252 296.663662 163.313873 0 296.434218-134.603339 296.434218-296.663662C809.261705 433.724231 753.605639 335.886965 663.126184 282.969842L663.126184 282.969842zM512.827487 765.951181 512.827487 765.951181c-91.444201 0-175.302145-55.655665-210.579627-140.251509-11.301338-27.231537-17.184349-57.141658-17.184349-87.50687 0-90.711298 55.428819-174.103958 139.281767-209.382039 56.403558-24.037702 120.616422-23.522052 176.787138 0 84.60144 35.278081 139.287163 118.670741 139.287163 209.382039C740.363617 662.746354 639.099475 765.951181 512.827487 765.951181L512.827487 765.951181z"  horiz-adv-x="1024" />

    
    <glyph glyph-name="tuangou-copy" unicode="&#58882;" d="M824.994 744.274c13.208 0 25.626-5.143 34.966-14.483 9.339-9.339 14.483-21.756 14.482-34.964v-624.11c0-27.266-22.183-49.448-49.449-49.448h-624.109c-27.266 0-49.448 22.182-49.448 49.448l0 624.111c0 27.265 22.182 49.446 49.448 49.446h624.11M824.994 806.274h-624.11c-61.552 0-111.448-49.896-111.448-111.446v-624.111c0-61.552 49.896-111.448 111.448-111.448h624.109c61.552 0 111.449 49.896 111.449 111.448v624.11c0.001 61.551-49.897 111.447-111.448 111.447v0zM512.938 345.903c-68.507 0-132.914 26.678-181.356 75.12-48.441 48.442-75.12 112.849-75.12 181.355 0 17.121 13.879 31 31 31s31-13.879 31-31c0-107.234 87.241-194.476 194.476-194.476s194.477 87.241 194.477 194.476c0 17.121 13.879 31 31 31s31-13.879 31-31c0-68.508-26.678-132.915-75.12-181.356-48.442-48.441-112.85-75.119-181.357-75.119z"  horiz-adv-x="1024" />

    
    <glyph glyph-name="jiadian" unicode="&#58912;" d="M858.45157 766.687866 165.261904 766.687866c-54.465472 0-99.027387-44.562938-99.027387-99.027387l0-445.62222c0-54.466496 44.561915-99.027387 99.027387-99.027387l74.283844 0 0-99.021248c0-13.68365 11.073196-24.756847 24.756847-24.756847 13.68365 0 24.756847 11.073196 24.756847 24.756847L289.059442 123.011894l445.62222 0 0-99.021248c0-13.68365 11.073196-24.756847 24.756847-24.756847s24.756847 11.073196 24.756847 24.756847L784.195356 123.011894l74.256214 0c54.465472 0 99.027387 44.560892 99.027387 99.027387L957.478957 667.660478C957.478957 722.123904 912.917042 766.687866 858.45157 766.687866zM907.965264 222.038258c0-27.301809-22.211884-49.513694-49.513694-49.513694L165.261904 172.524564c-27.301809 0-49.513694 22.211884-49.513694 49.513694L115.748211 667.660478c0 27.301809 22.211884 49.513694 49.513694 49.513694l693.189665 0c27.301809 0 49.513694-22.211884 49.513694-49.513694L907.965264 222.038258zM594.380242 664.566 297.299103 664.566c-54.465472 0-99.027387-44.562938-99.027387-99.027387l0-247.567445c0-54.466496 44.561915-99.027387 99.027387-99.027387l297.081139 0c54.463426 0 99.027387 44.560892 99.027387 99.027387L693.40763 565.538613C693.40763 620.003062 648.843668 664.566 594.380242 664.566zM643.893936 317.971168c0-27.301809-22.211884-49.513694-49.513694-49.513694L297.299103 268.457474c-27.301809 0-49.513694 22.211884-49.513694 49.513694L247.785409 565.538613c0 27.301809 22.211884 49.513694 49.513694 49.513694l297.081139 0c27.301809 0 49.513694-22.211884 49.513694-49.513694L643.893936 317.971168zM792.46367 309.274088c13.68365 0 24.756847 11.073196 24.756847 24.756847L817.220516 636.720815c0 13.68365-11.073196 24.756847-24.756847 24.756847-13.68365 0-24.756847-11.073196-24.756847-24.756847l0-302.68988C767.706823 320.346261 778.778996 309.274088 792.46367 309.274088zM793.478789 274.677129l-0.484024 0c-13.68365 0-24.515347-11.073196-24.515347-24.756847s11.362792-24.756847 24.998347-24.756847c13.68365 0 24.756847 11.073196 24.756847 24.756847S807.16244 274.677129 793.478789 274.677129z"  horiz-adv-x="1024" />

    
    <glyph glyph-name="bao" unicode="&#58903;" d="M868.879572 670.379403 687.751305 670.379403l0 45.825698c0 50.052976-40.751123 90.76419-90.76419 90.76419L428.019819 806.969291c-50.013067 0-90.765213-40.711214-90.765213-90.76419l0-45.825698L153.550677 670.379403c-49.369408 0-89.475847-40.831964-89.475847-91.007737l0-526.712073c0-50.173726 40.107463-91.006713 89.475847-91.006713l715.328895 0c49.368384 0 89.475847 40.831964 89.475847 91.006713L958.355419 579.372689C958.355419 629.547439 918.247956 670.379403 868.879572 670.379403zM378.490775 671.667745l0 44.537356c0 27.301809 22.228257 49.530067 49.529043 49.530067l168.966273 0c27.302833 0 49.530067-22.229281 49.530067-49.530067l0-44.537356c-0.88516-0.412392-3.054569-0.860601-4.202719-1.288343L382.693494 670.379403C381.544321 670.807145 379.375935 671.255353 378.490775 671.667745zM153.550677 629.143233l222.472907 0c25.254174-7.776104 66.543555-13.610996 136.479371-13.610996 69.937862 0 111.227244 5.834892 136.480394 13.610996l219.896222 0c26.577309 0 48.241724-22.308075 48.241724-49.771567l0-153.825434L563.518862 425.546232c-15.608489 4.490268-32.889061 7.368828-52.303226 7.368828-19.414165 0-36.693714-2.87856-52.30425-7.368828L105.308953 425.546232 105.308953 579.372689C105.308953 606.835158 126.973368 629.143233 153.550677 629.143233zM589.818855 354.676138c0-43.329854-35.274388-78.605266-78.603219-78.605266-43.328831 0-78.603219 35.276435-78.603219 78.605266 0 13.525038 14.240329 23.363104 33.275871 29.635971l90.654696 0C575.579549 378.039241 589.818855 368.200152 589.818855 354.676138zM868.879572 2.889049 153.550677 2.889049c-26.577309 0-48.241724 22.309098-48.241724 49.771567L105.308953 384.312108l294.306956 0c-5.037736-9.024537-8.239662-18.85544-8.239662-29.635971 0-66.081021 53.7993-119.839389 119.838366-119.839389 66.040089 0 119.839389 53.758368 119.839389 119.839389 0 10.780531-3.201925 20.611433-8.241708 29.635971l294.306956 0 0-331.651492C917.120272 25.198148 895.455857 2.889049 868.879572 2.889049z"  horiz-adv-x="1024" />

    
    <glyph glyph-name="leisure" unicode="&#58883;" d="M490.69 829.608h60.86v-162.294h-60.86v162.294zM713.844 768.748h60.86v-101.434h-60.86v101.434zM267.535 768.748h60.86v-101.434h-60.86v101.434zM64.668-2.149h892.617v-60.86h-892.617v60.86zM891.313 565.88c-3.827-35.151-10.367-82.375-21.393-134.809-13.379-63.621-30.653-122.364-51.342-174.6-20.853-52.648-45.153-98.564-72.426-136.9l-470.35-0c-27.276 38.336-51.58 84.254-72.434 136.901-20.69 52.235-37.965 110.978-51.341 174.597-11.026 52.44-17.564 99.664-21.389 134.81l760.676-0M957.285 626.741h-892.617c0 0 12.58-359.911 180.937-568.029h530.744c168.336 208.118 180.936 568.029 180.936 568.029v0z"  horiz-adv-x="1024" />

    
    <glyph glyph-name="huangguan-copy" unicode="&#58886;" d="M813.113-14.063h-601.904c-12.619 0-23.495 8.881-26.015 21.246l-72.763 356.843c-13.006 0.639-25.635 3.603-37.613 8.833-13.089 5.715-24.826 13.876-34.882 24.258-10 10.323-17.846 22.334-23.323 35.697-5.651 13.794-8.518 28.426-8.518 43.485 0 15.059 2.866 29.691 8.518 43.486 5.476 13.364 13.323 25.376 23.323 35.698 10.057 10.382 21.792 18.544 34.882 24.258 13.625 5.949 28.092 8.964 42.996 8.964 14.907 0 29.374-3.017 42.997-8.964 13.090-5.715 24.826-13.877 34.882-24.258 10-10.323 17.846-22.334 23.323-35.698 5.651-13.794 8.518-28.426 8.518-43.486 0-12.395-1.989-24.629-5.841-36.23l133.89-99.827 90.388 218.046c-27.077 20.941-43.599 53.955-43.599 89.725 0 15.059 2.866 29.691 8.518 43.485 5.476 13.364 13.323 25.375 23.323 35.697 10.057 10.381 21.792 18.544 34.882 24.258 13.625 5.949 28.092 8.964 42.996 8.964 14.907 0 29.374-3.017 42.997-8.964 13.090-5.715 24.826-13.876 34.882-24.258 10-10.323 17.847-22.333 23.324-35.697 5.651-13.794 8.518-28.426 8.518-43.485 0-35.709-16.486-68.695-43.501-89.645l90.421-218.126 133.783 99.748c-3.868 11.626-5.868 23.886-5.868 36.311 0 15.059 2.866 29.691 8.518 43.486 5.476 13.364 13.323 25.376 23.323 35.698 10.057 10.382 21.792 18.544 34.882 24.258 13.625 5.949 28.092 8.964 42.997 8.964 14.907 0 29.374-3.017 42.997-8.964 13.090-5.715 24.828-13.877 34.883-24.258 10-10.323 17.846-22.334 23.323-35.698 5.651-13.795 8.518-28.426 8.518-43.486 0-15.059-2.866-29.691-8.518-43.485-5.476-13.364-13.324-25.375-23.323-35.697-10.057-10.381-21.793-18.544-34.882-24.258-11.937-5.211-24.522-8.173-37.479-8.827l-72.762-356.848c-2.523-12.364-13.397-21.246-26.016-21.246zM232.892 39.038h558.538l73.053 358.278c2.921 14.324 16.871 23.593 31.21 20.734 3.51-0.7 7.102-1.055 10.678-1.055 31.221 0 56.622 26.604 56.622 59.305 0 32.702-25.399 59.307-56.622 59.307-31.22 0-56.62-26.604-56.62-59.307 0-11.106 2.947-21.926 8.519-31.295 6.953-11.685 3.955-26.736-6.947-34.862l-178.187-132.857c-6.565-4.895-15.019-6.485-22.916-4.314-7.897 2.173-14.347 7.867-17.481 15.431l-112.179 270.611c-5.509 13.287 0.565 28.543 13.698 34.409 20.93 9.347 34.453 30.773 34.453 54.583 0 32.7-25.399 59.305-56.622 59.305-31.219 0-56.62-26.604-56.62-59.305 0-23.849 13.552-45.289 34.527-54.619 13.155-5.852 19.248-21.124 13.734-34.426l-112.158-270.56c-3.135-7.565-9.587-13.259-17.481-15.431-7.897-2.172-16.35-0.581-22.916 4.314l-178.278 132.925c-10.893 8.122-13.895 23.158-6.959 34.841 5.554 9.356 8.49 20.159 8.49 31.247 0 32.702-25.398 59.307-56.62 59.307-31.219 0-56.62-26.604-56.62-59.307 0-32.7 25.398-59.305 56.62-59.305 3.606 0 7.227 0.362 10.764 1.072 14.348 2.887 28.329-6.383 31.252-20.723l73.061-358.303z"  horiz-adv-x="1024" />

    
    <glyph glyph-name="sousuo" unicode="&#58890;" d="M945.186 18.227l-159.6 156.695c50.831 67.312 81.346 150.83 81.346 241.689 0 221.93-179.87 401.845-401.844 401.845-221.951 0-401.845-179.916-401.845-401.845 0-221.975 179.893-401.869 401.845-401.869 102.262 0 195.337 38.526 266.251 101.432L891.17-40.728c15.698-15.42 40.514-14.774 55.45 1.477 14.887 16.25 14.264 42.013-1.434 57.478z m-480.074 67.407c-182.778 0-330.93 148.176-330.93 330.954 0 182.756 148.152 330.931 330.93 330.931 182.757 0 330.932-148.175 330.932-330.93-0.001-182.78-148.176-330.955-330.932-330.955z"  horiz-adv-x="1024" />

    
    <glyph glyph-name="youhuijuan" unicode="&#58963;" d="M887.466667 462.336c-6.656 4.949333-10.410667 9.898667-10.24 13.653333 0.170667 3.584 3.925333 8.533333 9.557333 12.117334 28.16 14.165333 34.304 31.914667 34.474667 44.373333 0.170667 16.725333-10.410667 29.696-21.162667 35.157333-11.946667 5.973333-19.114667 12.970667-19.797333 19.285334-0.341333 4.096 2.048 7.338667 3.754666 8.533333l0.341334 0.170667c7.850667 6.656 31.744 26.624 23.552 49.152-8.533333 23.552-44.714667 25.429333-55.637334 25.6H165.888c-27.648 0-50.005333-22.528-50.005333-50.005334V505.685333c6.826667 1.536 13.824 2.389333 21.162666 2.389334-7.338667 0-14.336-0.853333-21.162666-2.389334v-35.498666c6.656 2.389333 13.824 3.584 21.162666 3.584 4.437333 0 8.704-0.512 12.970667-1.365334 28.672-5.973333 50.176-31.402667 50.176-61.781333s-21.504-55.808-50.176-61.781333c-4.266667-0.853333-8.533333-1.365333-12.970667-1.365334-7.509333 0-14.506667 1.365333-21.162666 3.584v-35.498666c6.826667-1.536 13.824-2.389333 21.162666-2.389334-7.338667 0-14.336 0.853333-21.162666 2.389334v-114.688c0-27.648 22.528-50.005333 50.005333-50.005334h686.250667c40.106667 0 50.517333 21.333333 52.906666 30.549334 5.12 18.773333-5.12 41.301333-23.893333 52.565333-5.802667 3.584-8.533333 10.410667-7.509333 14.848 0.341333 1.365333 1.024 5.12 9.216 6.485333 17.749333 2.901333 30.208 15.189333 33.109333 32.938667 3.584 22.186667-8.192 49.664-25.429333 58.709333-12.8 6.656-15.36 11.776-15.36 12.8 0 1.706667 3.584 6.656 10.922666 10.581334 24.234667 11.776 30.549333 27.818667 31.402667 39.424 1.706667 22.528-15.018667 42.325333-30.037333 52.565333zM275.114667 185.344h-109.397334c-8.704 0-15.872 7.168-15.872 15.872V314.538667c47.616 6.314667 84.309333 47.104 84.309334 96.426666s-36.864 90.112-84.309334 96.426667v113.152c0 8.704 7.168 15.872 15.872 15.872h109.397334v-451.072zM871.082667 401.578667l-0.512-0.341334c-18.432-9.728-29.354667-24.917333-29.354667-40.96 0-16.896 11.264-31.402667 33.621333-43.008 3.584-2.389333 9.386667-15.018667 7.509334-23.552-0.512-2.730667-1.365333-3.584-4.778667-4.266666-19.968-3.242667-33.792-15.872-37.205333-33.792-3.754667-19.285333 5.973333-40.106667 23.552-50.688 6.144-3.754667 9.386667-11.093333 8.533333-14.165334-0.512-2.218667-6.656-5.632-20.138667-5.632H295.594667V636.416h556.373333c7.68 0 16.554667-1.536 21.504-3.242667-1.706667-2.389333-4.949333-5.973333-11.093333-11.093333-11.434667-9.216-17.749333-24.064-16.213334-38.570667 1.365333-12.970667 9.045333-31.402667 38.229334-46.08 0.682667-0.341333 2.56-2.389333 2.56-4.608-0.170667-3.072-4.437333-8.704-16.213334-14.336l-1.536-0.853333c-16.213333-10.069333-25.770667-24.576-26.453333-40.277333-0.512-10.922667 3.413333-27.306667 24.405333-42.666667l0.512-0.341333c9.045333-6.144 15.872-15.701333 15.530667-21.504-0.170667-5.12-8.533333-9.557333-12.117333-11.264zM368.64 525.141333h15.36v-20.48h-15.36zM469.504 525.141333h28.501333v-20.48h-28.501333zM526.506667 525.141333h28.501333v-20.48h-28.501333zM583.338667 525.141333h28.501333v-20.48h-28.501333zM640.341333 525.141333h28.501334v-20.48h-28.501334zM697.344 525.141333h28.501333v-20.48h-28.501333zM412.501333 525.141333h28.501334v-20.48h-28.501334zM754.346667 525.141333h15.36v-20.48h-15.36zM368.64 430.421333h15.36v-20.48h-15.36zM412.501333 430.421333h28.501334v-20.48h-28.501334zM583.338667 430.421333h28.501333v-20.48h-28.501333zM640.341333 430.421333h28.501334v-20.48h-28.501334zM526.506667 430.421333h28.501333v-20.48h-28.501333zM697.344 430.421333h28.501333v-20.48h-28.501333zM469.504 430.421333h28.501333v-20.48h-28.501333zM754.346667 430.421333h15.36v-20.48h-15.36zM368.64 335.701333h15.36v-20.48h-15.36zM476.842667 335.701333h30.890666v-20.48h-30.890666zM414.890667 335.701333h30.890666v-20.48h-30.890666zM538.794667 335.701333h30.890666v-20.48h-30.890666zM600.746667 335.701333h15.36v-20.48h-15.36z"  horiz-adv-x="1024" />

    
    <glyph glyph-name="dingdan" unicode="&#58894;" d="M762 34H262c-36.8 0-66.7 29.8-66.7 66.7V634c0 36.8 29.8 66.7 66.7 66.7h83.3c0-36.8 29.8-66.7 66.7-66.7h200c36.8 0 66.7 29.8 66.7 66.7H762c36.8 0 66.7-29.8 66.7-66.7v-533.3c0-36.9-29.9-66.7-66.7-66.7z m-66.7 483.3H328.7c-18.4 0-33.3-14.9-33.3-33.3s14.9-33.3 33.3-33.3h366.7c18.4 0 33.3 14.9 33.3 33.3s-15 33.3-33.4 33.3z m0-133.3H328.7c-18.4 0-33.3-14.9-33.3-33.3s14.9-33.3 33.3-33.3h366.7c18.4 0 33.3 14.9 33.3 33.3s-15 33.3-33.4 33.3z m0-133.3H328.7c-18.4 0-33.3-14.9-33.3-33.3s14.9-33.3 33.3-33.3h366.7c18.4 0 33.3 14.9 33.3 33.3 0 18.3-15 33.3-33.4 33.3zM612 667.3H412c-18.4 0-33.3 14.9-33.3 33.3s14.9 33.3 33.3 33.3h200c18.4 0 33.3-14.9 33.3-33.3 0-18.3-14.9-33.3-33.3-33.3z"  horiz-adv-x="1024" />

    
    <glyph glyph-name="tuangou-copy1" unicode="&#58884;" d="M845.86 834.426h-665.716c-65.655 0-118.878-53.222-118.878-118.876v-665.718c0-65.655 53.222-118.878 118.878-118.878h665.716c65.655 0 118.879 53.222 118.879 118.878v665.717c0 65.654-53.223 118.877-118.879 118.877zM869.633 73.607c0-26.262-21.291-47.549-47.551-47.549h-618.165c-26.262 0-47.551 21.289-47.551 47.549v618.166c0 26.263 21.29 47.551 47.551 47.551h618.166c26.261 0 47.551-21.289 47.551-47.551v-618.166zM750.756 644.224c-26.262 0-47.552-21.292-47.552-47.553 0-105.047-85.157-190.203-190.205-190.203-105.046 0-190.205 85.155-190.205 190.203 0 26.262-21.29 47.553-47.551 47.553-26.261 0-47.551-21.292-47.551-47.553 0-157.57 127.735-285.308 285.308-285.308s285.308 127.735 285.308 285.308c0 26.262-21.289 47.553-47.55 47.553z"  horiz-adv-x="1024" />

    
    <glyph glyph-name="01" unicode="&#59038;" d="M897.81651 26.019588l-26.301019 593.461523c-0.511693 43.800919-36.43254 79.312413-80.540476 79.312413H657.320808C646.472916 768.793124 585.376774 823.748951 511.897661 823.748951s-134.575255-55.058165-145.423146-124.955427H233.024985c-44.107935 0-80.131121-35.511493-80.540476-79.312413l-26.301019-593.461523v-1.535079c0-44.312612 36.125525-80.335799 80.540476-80.335798h610.44973c44.414951 0 80.540476 36.023186 80.540475 80.335798 0.102339 0.511693 0.102339 1.023386 0.102339 1.535079zM511.897661 755.386768c35.613832 0 65.701379-23.844893 75.423546-56.490906H436.474116c9.619828 32.543674 39.809714 56.490905 75.423545 56.490906z m305.378373-742.875875H206.826304c-6.652009 0-11.871277 5.014591-12.178293 11.461923l26.198681 593.052169V618.662403c0 6.54967 5.321607 11.768939 12.075954 11.768938H364.325405v-125.057765c0-18.93264 15.248451-34.181091 34.181091-34.181091s34.181091 15.35079 34.181091 34.181091V630.431341h157.499101v-125.057765c0-18.93264 15.248451-34.181091 34.181091-34.181091s34.181091 15.35079 34.181092 34.181091V630.431341h132.221467c6.856686 0 12.178293-5.219268 12.178293-11.768938v-1.535079l26.301019-593.154508c-0.102339-6.447332-5.423946-11.461923-11.973616-11.461923z"  horiz-adv-x="1024" />

    
    <glyph glyph-name="fankui" unicode="&#58898;" d="M350.564267 65.490133h-190.389334c-17.672533 0-32 14.3264-32 32V287.8816a31.9936 31.9936 0 0 0 9.396267 22.650667L650.1024 821.9968c12.500267 12.474667 32.743467 12.464 45.230933-0.023467l188.251734-188.253866c4.106667-4.1056 13.720533-13.7216 11.095466-29.890134a32.004267 32.004267 0 0 0-8.981333-17.525333L373.169067 74.839467a32.005333 32.005333 0 0 0-22.6048-9.349334z m-158.389334 64h145.154134l480.487466 479.488c-36.637867 36.64-108.510933 108.510933-145.134933 145.136L192.174933 274.605867v-145.115734zM863.825067-63.346133H160.708267c-17.672533 0-32 14.327467-32 32s14.327467 32 32 32h703.1168c17.672533 0 32-14.327467 32-32s-14.327467-32-32-32z"  horiz-adv-x="1024" />

    
    <glyph glyph-name="fanhuidingbu" unicode="&#59590;" d="M942.188468 716.106725H81.91386c-9.107225 0-16.577196-7.367643-16.577196-16.577196v-33.052063c0-9.107225 7.367643-16.577196 16.577196-16.577196h860.274608c9.107225 0 16.577196 7.367643 16.577196 16.577196V699.529529c-0.102328 9.107225-7.469971 16.577196-16.577196 16.577196zM529.907465 540.306585c-4.809433 4.809433-11.972419 6.037374-17.907465 3.479165-5.935045 2.558209-13.098031 1.330269-17.907465-3.479165L71.783352 102.852803c-6.344359-6.344359-6.344359-16.679524 0-23.023883l23.126211-23.023884c6.344359-6.344359 16.781853-6.344359 23.126212 0l394.066553 408.187869 394.066554-408.187869c6.344359-6.344359 16.781853-6.344359 23.126211 0l23.126212 23.023884c6.344359 6.344359 6.344359 16.679524 0 23.023883L529.907465 540.306585z"  horiz-adv-x="1024" />

    
    <glyph glyph-name="xiaoxi" unicode="&#58885;" d="M277.374 542.059h419.444c16.778 0 30.378 13.601 30.378 30.378 0 16.777-13.601 30.378-30.378 30.378l-419.444-0c-16.777 0-30.378-13.601-30.378-30.378-0.001-16.777 13.601-30.378 30.378-30.378zM277.374 369.24h498.653c16.778 0 30.378 13.602 30.378 30.379s-13.601 30.378-30.378 30.378l-498.653 0c-16.777 0-30.378-13.601-30.378-30.378-0.001-16.777 13.601-30.379 30.378-30.379zM832.588 896h-606.523c-101.163 0-183.466-84.088-183.466-187.444v-483.762c0-95.413 70.14-174.402 160.506-185.98 12.056-1.544 23.819-1.467 35.938-1.465 9.542 0.002 19.083-0.001 28.624-0.001 11.592 0 23.183 0.001 34.776 0 10.002 0 20.006 0 30.008 0 4.787 0 9.575 0 14.362 0 0.106 0 0.211 0 0.317 0l0.029 0.105h21.574c16.777 0 30.378 13.601 30.378 30.378s-13.601 30.378-30.378 30.378l-147.458 0c-65.45 2.607-117.92 58.383-117.92 126.583l0 483.764c0 69.856 55.047 126.688 122.71 126.688h606.523c67.661 0 122.708-56.832 122.708-126.688v-483.762c0-69.855-55.047-126.688-122.708-126.688h-172.898l-0.064-0.22c-8.731 0.572-17.641-2.613-24.111-9.479l-155.657-165.197c-11.506-12.211-10.934-31.435 1.276-42.942 5.868-5.529 13.355-8.268 20.827-8.268 8.078 0 16.139 3.203 22.115 9.547l146.808 155.804h161.704c101.163 0 183.465 84.088 183.465 187.444l0 483.76c0 103.358-82.302 187.444-183.465 187.444z"  horiz-adv-x="1052" />

    
    <glyph glyph-name="shu" unicode="&#58895;" d="M870.60992 657.27488H229.92896c-48.98816 0-88.85248 39.89504-88.85248 88.8832s39.86432 88.8832 88.85248 88.8832h554.10688c15.3088 0 27.6736-12.39552 27.6736-27.67872s-12.3648-27.67872-27.6736-27.67872H229.92896c-18.48832 0-33.50016-15.04256-33.50016-33.53088 0-18.49344 15.01184-33.53088 33.50016-33.53088h640.68096a27.66848 27.66848 0 0 0 27.67872-27.67872 27.66336 27.66336 0 0 0-27.67872-27.66848zM870.60992-67.04128H229.92896c-48.98816 0-88.85248 39.88992-88.85248 88.9088 0 15.27808 12.3648 27.67872 27.67872 27.67872s27.67872-12.40064 27.67872-27.67872c0-18.51904 15.01184-33.5616 33.50016-33.5616h640.68096c15.3088 0 27.67872-12.40064 27.67872-27.67872s-12.37504-27.66848-27.68384-27.66848zM168.75008-5.8112a27.66848 27.66848 0 0 0-27.67872 27.67872V746.15808c0 15.27808 12.3648 27.67872 27.67872 27.67872s27.67872-12.40064 27.67872-27.67872v-724.29056a27.66848 27.66848 0 0 0-27.67872-27.67872zM870.60992-67.04128a27.66336 27.66336 0 0 0-27.67872 27.6736V684.94848c0 15.2832 12.36992 27.68384 27.67872 27.68384s27.67872-12.40064 27.67872-27.68384v-724.31616a27.66336 27.66336 0 0 0-27.67872-27.6736zM784.03584 657.27488a27.66336 27.66336 0 0 0-27.6736 27.6736v122.4192c0 15.27808 12.36992 27.6736 27.6736 27.6736s27.6736-12.39552 27.6736-27.6736v-122.4192a27.66336 27.66336 0 0 0-27.6736-27.6736zM692.8384 477.3376H334.27456a27.65824 27.65824 0 0 0-27.6224 27.67872 27.648 27.648 0 0 0 27.6224 27.67872h358.56384a27.6992 27.6992 0 0 0 27.6736-27.67872 27.6992 27.6992 0 0 0-27.6736-27.67872zM532.48 351.86688H334.27456a27.65824 27.65824 0 0 0-27.6224 27.6736 27.648 27.648 0 0 0 27.6224 27.67872H532.48a27.66848 27.66848 0 0 0 27.67872-27.67872 27.66848 27.66848 0 0 0-27.67872-27.6736z"  horiz-adv-x="1024" />

    
    <glyph glyph-name="shafa" unicode="&#59068;" d="M883 47.6H140.3c-41.8 0-75.8 34-75.8 75.8V402.7c0 16.6 13.4 30 30 30s30-13.4 30-30v-279.4c0-8.7 7.1-15.8 15.8-15.8H883c8.7 0 15.8 7.1 15.8 15.8V402.7c0 16.6 13.4 30 30 30s30-13.4 30-30v-279.4c0-41.7-34-75.7-75.8-75.7zM785.3 372.7H238.7c-16.6 0-30 13.4-30 30s13.4 30 30 30h546.6c16.6 0 30-13.4 30-30s-13.4-30-30-30zM94.5 239.3c-16.6 0-30 13.4-30 30V462.2c0 55.1 44.8 99.9 99.9 99.9s99.9-44.8 99.9-99.9v-187.9c0-16.6-13.4-30-30-30s-30 13.4-30 30V462.2c0 22-17.9 39.9-39.9 39.9s-39.9-17.9-39.9-39.9v-192.9c0-16.6-13.4-30-30-30zM929.5 239.3c-16.6 0-30 13.4-30 30V462.2c0 22-17.9 39.9-39.9 39.9s-39.9-17.9-39.9-39.9v-189.9c0-16.6-13.4-30-30-30s-30 13.4-30 30V462.2c0 55.1 44.8 99.9 99.9 99.9s99.9-44.8 99.9-99.9v-192.9c0-16.6-13.4-30-30-30zM876.6 502.1c-16.6 0-30 13.4-30 30v74.5c0 29.7-24.2 53.9-53.9 53.9H232.4c-29.7 0-53.9-24.2-53.9-53.9v-72.4c0-16.6-13.4-30-30-30s-30 13.4-30 30v72.4c0 62.8 51.1 113.9 113.9 113.9h560.3c62.8 0 113.9-51.1 113.9-113.9v-74.5c0-16.6-13.5-30-30-30zM789.7 239.6H234.3c-16.6 0-30 13.4-30 30s13.4 30 30 30h555.5c16.6 0 30-13.4 30-30s-13.5-30-30.1-30zM512.5 245.9c-16.5 0-29.9 13.3-30 29.8l-0.7 107.2c-0.1 16.6 13.2 30.1 29.8 30.2h0.2c16.5 0 29.9-13.3 30-29.8l0.7-107.2c0.1-16.6-13.2-30.1-29.8-30.2h-0.2z"  horiz-adv-x="1024" />

    
    <glyph glyph-name="qingjie" unicode="&#58896;" d="M748.1 256.4c-11 0-20-9-20-20v-140c0-23.7-9.3-46.1-26.3-63.1-16.9-16.9-39.3-26.3-63.1-26.3H384.1c-23.4 0-45.5 9.2-62.2 25.9-16.7 16.7-25.9 38.8-25.9 62.2V287.8c0 28.9 5.7 56.9 16.9 83.4 10.9 25.6 26.4 48.6 46.3 68.5s42.9 35.4 68.5 46.3c26.5 11.2 54.5 16.9 83.4 16.9h0.7c29 0 57.3-5.7 83.9-17 25.7-10.9 48.9-26.6 68.8-46.5s35.6-43.1 46.5-68.8c6.3-14.9 10.9-30.3 13.7-46.1 1.7-9.5 10-16.3 19.6-16.3 12.4 0 21.9 11.2 19.7 23.4C742.6 451.3 637.3 543 511.7 543h-0.7c-140.2-0.1-255-114.9-255-255.2v-192.6c0-70.5 57.6-128.1 128.1-128.1h254.7c71.1 0 129.3 58.2 129.3 129.3v140c0 11.1-8.9 20-20 20zM655.9 502.1H364.1v99.4c0 35.6 28.9 64.5 64.5 64.5h162.8c35.6 0 64.5-28.9 64.5-64.5v-99.4z m-251.8 40H616v59.4c0 13.5-11 24.5-24.5 24.5H428.6c-13.5 0-24.5-11-24.5-24.5v-59.4zM480.5 760.9h62.9v-114.8h-62.9zM321.1 732.4c-1.1 1.8-0.7 4.1 1 5.4l80.5 60.6h217.6c11 0 20-9 20-20s-9-20-20-20H407.6l-81.8-27.7c-1.8-0.5-3.7 0.2-4.7 1.7zM242.7 690.7l35.4 15.4-15.4-35.4 15.4-35.4-35.4 15.4-35.3-15.4 15.3 35.4-15.3 35.4zM164.3 584.9l49.6 21.5-21.5-49.6 21.5-49.6-49.6 21.5-49.7-21.5 21.6 49.6-21.6 49.6zM383.6 330.6h192M383.6 350.6h192v-40h-192zM384.1 256.7h220.3M384.1 276.7h220.3v-40H384.1zM383.6 182.4h252.8M383.6 202.4h252.8v-40H383.6z"  horiz-adv-x="1024" />

    
    <glyph glyph-name="saoma" unicode="&#58891;" d="M881.6 401.6H166.4c-16 0-30.4 16-30.4 33.6 0 19.2 12.8 33.6 30.4 33.6h716.8c16 0 30.4-16 30.4-33.6-1.6-19.2-14.4-33.6-32-33.6z m-83.2 115.2H614.4c-25.6 0-46.4 22.4-46.4 49.6v129.6c0 27.2 20.8 49.6 46.4 49.6h182.4c25.6 0 46.4-22.4 46.4-49.6v-129.6c0-28.8-19.2-49.6-44.8-49.6z m-331.2 0c-19.2 0-33.6 14.4-33.6 32V712c0 17.6 16 32 33.6 32 19.2 0 33.6-14.4 33.6-32v-163.2c0-17.6-14.4-32-33.6-32z m-174.4 0h-64c-27.2 0-48 22.4-48 49.6v129.6c0 27.2 20.8 49.6 48 49.6h64c27.2 0 48-22.4 48-49.6v-129.6c0-28.8-20.8-49.6-48-49.6z m-65.6-160h182.4c25.6 0 46.4-20.8 46.4-46.4v-249.6c0-25.6-20.8-46.4-46.4-46.4H227.2c-25.6 0-46.4 20.8-46.4 46.4V308.8c0 27.2 20.8 48 46.4 48z m387.2 0h182.4c25.6 0 46.4-20.8 46.4-46.4v-249.6c0-25.6-20.8-46.4-46.4-46.4H768c-25.6 0-46.4 20.8-46.4 46.4v16h-107.2c-25.6 0-46.4 20.8-46.4 46.4V308.8c1.6 27.2 22.4 48 46.4 48z"  horiz-adv-x="1024" />

    
    <glyph glyph-name="dingwei" unicode="&#58887;" d="M523.58-37.768c-3.395-2.68-7.488-4.026-11.581-4.026s-8.185 1.346-11.581 4.026c-12.572 9.893-307.93 283.191-307.93 528.185 0 176.112 143.341 319.378 319.51 319.378s319.51-143.266 319.51-319.378c0.002-244.994-295.355-518.291-307.928-528.185v0zM512 639.596c-82.344 0-149.096-66.755-149.096-149.096 0-82.345 66.751-149.096 149.096-149.096s149.096 66.754 149.096 149.096c-0.001 82.34-66.755 149.096-149.096 149.096v0zM512 639.596z"  horiz-adv-x="1024" />

    
    <glyph glyph-name="xia" unicode="&#58888;" d="M726.613333 502.613333c-12.48 12.48-32.746667 12.48-45.226666 0L512 333.226667 342.613333 502.613333c-12.48 12.48-32.746667 12.48-45.226666 0-6.293333-6.293333-9.386667-14.4-9.386667-22.613333s3.093333-16.426667 9.386667-22.613333l192-192c12.48-12.48 32.746667-12.48 45.226666 0l192 192c12.48 12.48 12.48 32.746667 0 45.226666z"  horiz-adv-x="1024" />

    
    <glyph glyph-name="diaopaijia" unicode="&#58923;" d="M704.4 378.096l-87.808 4.224 7.264 88.352c0.8 11.056-6.736 19.76-17.808 20.576-11.056 0.784-19.776-6.752-20.56-17.824l-8.16-100.88-50.544 58.336c-6.672 7.696-19.6 8.64-27.328 1.952-7.712-6.688-8.624-19.584-1.936-27.312l49.008-56.544-14.624-12.704-49.024 56.576c-6.672 7.712-19.6 8.64-27.312 1.952-7.712-6.672-8.624-19.6-1.952-27.296l49.008-56.56-41.92-36.336c-5.952-5.12-4.688-16.16 1.968-23.84 6.688-7.728 17.648-10.368 23.36-5.408l41.92 36.336 49.008-56.576c6.688-7.696 19.568-8.64 27.296-1.936 7.712 6.688 8.656 19.6 1.968 27.296l-49.008 56.56 14.64 12.688 50.032-57.728 0.208 0.144c6.672-7.696 19.584-8.608 27.28-1.936 7.728 6.672 8.656 19.584 1.984 27.312l-50.736 58.544 101.008-6.32c11.104-0.816 19.792 6.736 20.576 17.808 0.8 11.04-6.72 19.76-17.808 20.544zM890.288 759.68l-174.24-1.68a153.504 153.504 0 0 1-18.896 0.8c-47.936-1.104-106.912-23.28-139.36-53.792L233.28 400.016c-36.832-34.608-38.672-93.216-4.208-130.08l228.384-244.528a91.872 91.872 0 0 1 69.232-28.896 91.2 91.2 0 0 1 60.64 24.8l324.416 305.024c36.96 34.64 65.184 104.368 63.008 154.912l10.944 176.416c-2.224 50.608-45.28 96.512-95.408 102.016z m29.328-280.832c1.504-34.224-20.592-88.768-45.6-112.192L549.44 61.552c-6.48-6.08-15.04-9.648-24.16-9.84a36.512 36.512 0 0 0-27.712 11.536L269.312 307.664c-13.584 14.464-12.848 38.32 1.664 51.936l324.528 305.152c21.92 20.544 68.096 37.936 102.944 38.736 4.16 0.096 8.176-0.048 11.648-0.416l174.128 1.584c23.296-2.576 45.36-26.16 46.416-49.536l-11.024-176.272zM761.616 644.592c-53.52-1.232-96.112-45.84-94.88-99.712 1.232-53.776 45.824-96.432 99.36-95.2 53.68 1.232 96.208 45.888 94.976 99.664-1.248 53.856-45.776 96.48-99.456 95.248z m3.2-139.616a42.24 42.24 0 0 0-1.952 84.416 42.208 42.208 0 0 0 43.104-41.264 42.192 42.192 0 0 0-41.152-43.152zM89.328 340l232.672 238L554.576 800c-49.472 0-108.528-28.272-143.536-63.28L58.272 383.952c-35.008-34.992-35.008-92.304 0-127.296l262.768-262.784c28.528-28.528 46.976-35.2 80.976-17.2L89.328 297.632a30.016 30.016 0 0 0 0 42.368z"  horiz-adv-x="1024" />

    
    <glyph glyph-name="jiangbei" unicode="&#59226;" d="M876.8 672h-76.8V742.4c0 25.6-19.2 44.8-44.8 44.8H268.8c-25.6 0-44.8-19.2-44.8-44.8v-70.4H147.2c-19.2 0-38.4-19.2-38.4-38.4v-153.6c0-89.6 70.4-166.4 160-172.8 44.8-64 115.2-115.2 192-128v-160H288c-25.6 0-44.8-19.2-44.8-44.8s19.2-44.8 44.8-44.8h441.6c25.6 0 44.8 19.2 44.8 44.8s-19.2 44.8-44.8 44.8H556.8v160c83.2 12.8 153.6 57.6 192 128 89.6 6.4 166.4 76.8 166.4 172.8V633.6c0 19.2-19.2 38.4-38.4 38.4z m-691.2-192V595.2h32v-128c0-25.6 0-44.8 6.4-70.4-19.2 19.2-38.4 44.8-38.4 83.2zM512 268.8c-108.8 0-198.4 89.6-198.4 198.4V697.6H704v-236.8c0-108.8-83.2-192-192-192z m320 211.2c0-32-12.8-64-38.4-76.8 6.4 25.6 6.4 44.8 6.4 70.4v128h32v-121.6zM544 556.8l-32 64-38.4-64-70.4-12.8 51.2-57.6-12.8-70.4L512 454.4l64-38.4-6.4 70.4 44.8 57.6z"  horiz-adv-x="1024" />

    
    <glyph glyph-name="jinkouguanniunai" unicode="&#58904;" d="M897.291 523.926l-127.05 156.243V804.303c0 17.52-15.238 31.697-34.021 31.697H321.021C302.219 836 287 821.823 287 804.303v-123.088L153.181 535.391c-5.245-5.742-8.161-13.042-8.161-20.616V-44.31c0-17.505 15.238-31.702 34.041-31.702h691.11c18.759 0 34.016 14.197 34.016 31.702V504.807c0.006 6.897-2.418 13.614-6.896 19.119zM728.307 798.709v-101.468H328.934V798.709h399.373zM195.676 495.765h291.103c11.29 0 20.426 8.511 20.426 19.015 0 10.519-9.136 19.011-20.426 19.011H215.138s115.119 124.874 115.554 125.405h365.48l-108.966-134.2c-4.89-5.633-7.574-12.672-7.574-19.919v-535.101H195.676V495.765z m657.879-525.788H630.288v532.57L736.42 640.87l117.135-138.02v-532.873z m-17.406 17.406"  horiz-adv-x="1024" />

    
    <glyph glyph-name="xing" unicode="&#58928;" d="M751.202 257.617s83.744-276.374 43.306-316.813c-40.439-40.439-281.404 135.595-281.404 135.595S268.805-99.634 228.366-59.195c-40.439 40.439 46.638 316.813 46.638 316.813S26.173 466.507 66.612 506.946s299.339 43.916 299.339 43.916S474.334 830.414 513.103 830.435c38.773 0.02 147.152-279.573 147.152-279.573s255.568-3.478 296.007-43.916-205.06-249.329-205.06-249.329z m-128.559 208.89c-40.439 40.439-93.514 242.632-111.206 242.632S440.669 506.946 400.23 466.507c0 0-212.303 0-212.303-20.219s161.755-101.097 161.755-161.755-60.658-222.413-40.439-242.632c20.219-20.219 142.797 121.316 202.193 121.316 59.392 0 181.974-141.535 202.193-121.316 20.219 20.219-40.439 181.974-40.439 242.632 0 60.658 161.755 141.535 161.755 161.755 0.001 20.219-212.302 20.219-212.302 20.219z"  horiz-adv-x="1024" />

    
    <glyph glyph-name="yinger" unicode="&#59221;" d="M663.587464 367.753991c0 27.206642-22.092158 49.329499-49.247634 49.329498-27.15343 0-49.237401-22.122857-49.237401-49.329498 0-27.208689 22.083971-49.331545 49.237401-49.331545 27.155477 0 49.247634 22.122857 49.247634 49.331545z m-62.50252 0c0 7.320733 5.944386 13.286608 13.254886 13.286607 7.316639 0 13.265118-5.965875 13.265118-13.286607 0-7.322779-5.948479-13.288654-13.265118-13.288654-7.309476 0-13.254885 5.966898-13.254886 13.288654z m-184.646393-49.331545c27.15343 0 49.245587 22.122857 49.245587 49.331545 0 27.206642-22.092158 49.329499-49.245587 49.329498-27.155477 0-49.238424-22.122857-49.238425-49.329498 0-27.208689 22.082948-49.331545 49.238425-49.331545z m0 62.619176c7.315616 0 13.265118-5.965875 13.265118-13.286608 0-7.322779-5.950526-13.288654-13.265118-13.288654-7.309476 0-13.256932 5.965875-13.256932 13.288654 0.001023 7.319709 5.947456 13.286608 13.256932 13.286608z m-34.462906-270.765797c0-74.868151 60.798714-135.762033 135.522579-135.762033 74.732052 0 135.530766 60.893882 135.530766 135.762033S592.229253 246.035812 517.498224 246.035812c-74.723865 0-135.52258-60.891835-135.522579-135.759987z m235.070829 0c0-54.981219-44.660152-99.719142-99.549273-99.719142-54.887075 0-99.538017 44.737924-99.538017 99.719142 0 54.981219 44.651966 99.717096 99.538017 99.717096 54.889121 0 99.549274-44.735877 99.549273-99.717096z m-128.757502 0c0-26.065655 21.171182-47.272653 47.201022-47.272653 26.027793 0 47.198975 21.206998 47.198975 47.272653 0 26.079982-21.171182 47.289026-47.198975 47.289026-26.02984 0-47.201022-21.209044-47.201022-47.289026z m47.201022 11.246135c6.182816 0 11.217483-5.052063 11.217482-11.246135 0-6.197142-5.034666-11.229762-11.217482-11.229762-6.185886 0-11.220552 5.03262-11.220553 11.229762 0 6.194072 5.033643 11.246135 11.220553 11.246135z m371.382379 262.723633c-43.440371 178.209798-204.78199 305.981856-389.154138 305.981857-20.818141 0.246617-83.306334 8.133238-96.850815 40.095183-11.210319 26.434046 11.057847 71.209832 62.695924 126.049834 6.818289 7.251148 6.483668 18.663058-0.748037 25.491581-7.227612 6.846942-18.594497 6.508227-25.431205-0.722454-64.735373-68.780503-87.512123-122.6719-69.634964-164.858722 25.061792-59.115376 118.925576-61.85272 129.758296-61.97654 172.672688 0 322.997392-122.717949 357.450065-291.970748 1.864464-9.136078 10.376325-15.065114 19.60757-14.06125l2.723018 0.846274c0.975211 0.12382 1.944282 1.307785 2.953261 1.307786 28.224832 0 51.186799-21.022803 51.1868-49.30494 0-28.212552-22.873963-47.218418-51.389414-47.218418h-0.159636c-1.071402 0-2.142803-3.677762-3.241834-3.608177-9.197476 0.458441-17.472953-9.909697-18.938328-19.095917-27.112498-169.234379-170.31806-298.555723-340.523557-307.476907-188.124612-9.94449-351.285668 122.630968-380.158253 308.198338a18.055215 18.055215 0 0 1-7.370874 11.914354 17.96107 17.96107 0 0 1-13.669324 3.026939c-3.039219-0.563842-6.149047-0.970094-9.355066-0.970094-28.234041 0-51.198056 23.0029-51.198055 51.267641 0 28.282137 22.964014 51.284013 51.198055 51.284013 3.521197 0 7.299243-0.477884 11.551081-1.463328a18.067494 18.067494 0 0 1 13.800307 2.424213 18.002003 18.002003 0 0 1 7.880481 11.588942c14.862499 74.198909 51.846832 141.005454 106.953917 193.222723 29.534663 28.001751 48.895617 63.588247 55.994292 102.992699 8.433066 46.813189 17.798365 117.053949 14.519692 186.167027-0.473791 9.945513-9.248641 17.761526-18.825764 17.002233-9.925047-0.473791-17.585517-9.197476-17.120936-19.140943 3.127224-65.733097-5.876847-133.691885-13.97734-178.659029-5.726421-31.784914-21.398356-61.680804-45.319161-84.34806-56.458873-53.503565-95.595218-126.092813-113.868397-198.178595h-1.588172c-48.071855 0-87.181595-36.95875-87.181595-85.111446 0-47.39238 37.890982-83.85892 84.931345-85.056188 37.21253-188.190103 201.485921-322.755892 393.108193-322.737472 7.141654 0 14.362102 0.195451 21.575388 0.564865 181.949982 9.55461 335.822488 144.261615 371.46322 322.735425 43.246967 5.121648 76.893274 42.045605 76.893274 86.710874-0.001023 45.920866-35.560914 83.670631-80.539314 87.086427z"  horiz-adv-x="1024" />

    
    <glyph glyph-name="Emuyingyongpin-ertongcanju" unicode="&#58925;" d="M309.248-95.744c-25.6 0-47.104 8.192-64.512 25.088-26.624 25.6-39.936 69.12-39.936 129.536 0 67.584 8.704 146.432 30.208 337.408l7.68 69.12c-2.56 5.12-13.312 15.872-20.992 24.064-20.48 21.504-48.64 50.176-63.488 92.672-9.216 26.112-12.8 66.048-9.728 104.448 2.56 34.304 12.288 83.456 41.984 122.368C219.136 844.8 259.072 864.256 307.2 864.256h3.584c48.128 0 88.064-19.456 116.224-55.808 29.696-38.4 38.912-87.552 41.984-122.368 3.072-38.4-0.512-78.336-9.728-104.448-14.848-42.496-43.008-71.168-63.488-92.672-7.68-8.192-18.432-18.944-20.992-24.064l7.68-68.096c21.504-192 30.72-270.848 30.72-338.432 0-60.416-13.312-103.936-39.936-129.536-17.408-16.384-38.912-24.576-64-24.576zM307.2 798.72c-31.744 0-56.32-11.776-75.264-35.328-21.504-28.16-28.672-66.048-30.72-92.672-2.56-30.208 0.512-62.464 6.656-80.896 10.752-30.72 31.744-53.248 50.688-71.68 18.432-19.456 35.328-36.864 32.768-57.856l-7.168-67.584c-20.48-182.272-29.184-257.024-29.184-319.488 0-44.032 8.192-75.776 24.064-91.136 11.264-10.752 24.064-10.752 29.696-10.752s18.432 0 29.696 10.752c15.872 15.36 24.064 46.592 24.064 91.136 0 62.464-8.192 137.216-29.184 318.976l-7.68 68.096c-2.56 21.504 13.824 38.4 32.768 57.856 18.432 18.944 39.424 41.472 50.688 72.192 6.144 18.432 9.216 51.712 6.656 80.896-2.048 27.136-9.216 65.024-30.72 92.672-18.432 24.064-42.496 35.328-75.264 35.328l-2.56-0.512z m417.792-893.952c-26.624 0-48.64 8.192-67.072 24.064-28.16 25.6-43.008 69.12-43.008 129.536 0 67.584 9.216 145.92 32.768 336.384l7.68 64c-4.608 4.608-13.312 11.776-19.456 15.872-28.672 22.528-72.192 56.832-72.192 114.688 0 78.336 6.144 154.624 17.408 220.16 4.096 22.528 25.6 46.08 54.784 46.08 15.872 0 29.696-6.144 39.936-15.872 10.24 14.848 28.16 25.088 48.64 25.088s38.4-10.24 48.128-25.088c10.24 9.728 24.576 15.872 40.448 15.872 29.696 0 51.2-23.04 54.784-46.08 11.264-65.024 17.408-141.312 17.408-220.16 0-57.856-43.52-92.16-72.192-114.688-5.632-4.608-14.848-11.776-19.456-15.872l7.68-64c23.04-190.464 32.768-268.8 32.768-336.384 0-60.416-14.336-103.936-43.008-129.536-16.896-16.384-39.424-24.576-66.048-24.064zM640 790.016c-4.096 0-6.656-5.12-7.168-6.144-10.24-59.904-15.872-130.048-15.872-202.752 0-32.768 28.672-55.296 51.712-73.728 20.992-16.384 38.912-30.72 36.352-51.712L696.32 388.608c-21.504-180.736-30.72-256-30.72-317.44 0-43.52 8.704-74.752 26.112-90.112 12.8-11.264 27.648-11.264 33.28-11.264s20.48 0 33.28 11.264c16.896 15.36 26.112 46.08 26.112 90.112 0 61.952-8.704 136.704-30.72 317.44L744.96 455.68c-2.56 20.992 15.872 34.816 36.352 51.712 23.04 18.432 51.712 40.96 51.712 73.728 0 72.704-5.632 142.848-15.872 203.264-0.512 1.536-3.584 6.144-7.168 6.144-5.12 0-7.168-2.56-7.168-3.584l1.536-168.448c-0.512-17.408-14.336-30.72-31.232-30.72s-31.232 13.312-31.232 30.72L732.672 793.6c0 2.56-3.584 6.144-8.704 6.144s-8.704-3.072-8.704-5.12l-7.68-177.152c0-16.384-14.336-29.696-30.72-29.696-17.408 0-30.72 13.312-30.72 30.208l1.536 169.472c-0.512-0.512-3.072 2.56-7.68 2.56z m22.016-170.496z m125.952 0.512v-1.536c0.512 1.024 0 1.536 0 1.536z"  horiz-adv-x="1024" />

    


  </font>
</defs>
</svg>
